<?xml version="1.0" standalone="no"?>
<!DOCTYPE svg PUBLIC "-//W3C//DTD SVG 20010904//EN"
 "http://www.w3.org/TR/2001/REC-SVG-20010904/DTD/svg10.dtd">
<svg version="1.0" xmlns="http://www.w3.org/2000/svg"
 width="1000.000000pt" height="1000.000000pt" viewBox="0 0 1000.000000 1000.000000"
 preserveAspectRatio="xMidYMid meet">

<g transform="translate(0.000000,1000.000000) scale(0.100000,-0.100000)"
fill="#000000" stroke="none">
<path d="M0 5000 l0 -5000 5000 0 5000 0 0 5000 0 5000 -5000 0 -5000 0 0
-5000z m5974 2265 l925 -590 1 -661 0 -662 -262 -185 c-145 -101 -447 -314
-673 -472 -225 -158 -438 -308 -473 -332 l-63 -45 3 68 3 67 673 466 672 466
0 615 0 616 -876 552 -876 552 -899 -553 -899 -552 3 -634 2 -634 675 -467
675 -467 3 -73 3 -73 -48 35 c-26 19 -362 254 -745 522 l-698 488 0 681 1 682
961 597 c595 371 965 595 973 590 7 -4 430 -272 939 -597z m-768 60 c117 -39
180 -79 274 -174 140 -141 195 -278 194 -481 -1 -133 -27 -229 -91 -340 -48
-82 -161 -195 -241 -240 l-61 -35 -1 -978 c0 -1090 4 -1024 -69 -1069 -31 -20
-49 -23 -141 -23 l-105 0 -3 238 -2 237 45 0 45 0 0 315 0 315 35 0 35 0 0
235 0 235 40 0 40 0 0 308 1 307 61 35 c172 97 273 274 271 475 -4 473 -579
707 -914 373 -254 -255 -189 -687 130 -857 l61 -32 0 -1080 c0 -686 -4 -1079
-10 -1079 -5 0 -21 17 -35 37 l-25 38 0 980 0 980 -64 33 c-202 105 -342 330
-353 567 -16 346 209 631 558 705 78 16 238 4 325 -25z m-85 -322 c66 -30 124
-86 156 -151 24 -50 28 -68 28 -147 -1 -72 -5 -101 -24 -142 -24 -53 -99 -133
-146 -155 -22 -10 -25 -17 -25 -60 0 -45 -2 -48 -25 -48 l-25 0 0 120 0 120
38 38 c91 91 74 245 -32 293 -85 38 -173 18 -230 -54 -27 -34 -31 -46 -31
-102 0 -71 18 -105 73 -140 l32 -20 -3 -120 -2 -120 -32 -3 c-33 -3 -33 -3
-33 42 0 40 -4 47 -34 65 -50 31 -105 96 -134 160 -39 82 -38 193 1 273 34 69
100 130 171 158 69 27 209 24 277 -7z m1048 -218 l51 -37 -2 -740 -3 -740 -62
-45 -63 -45 0 827 c0 705 2 826 14 822 8 -3 37 -22 65 -42z m-2239 -806 c0
-653 -3 -819 -12 -813 -7 4 -37 25 -66 47 l-52 39 2 736 3 736 54 38 c30 21
58 38 63 38 4 0 8 -369 8 -821z m2458 669 l52 -39 0 -597 -1 -597 -64 -48 -65
-47 0 690 c0 550 3 690 13 684 6 -4 36 -25 65 -46z m-2678 -664 l0 -685 -60
46 -60 46 0 599 0 599 53 40 c28 23 55 41 60 41 4 0 7 -309 7 -686z m2290
-114 l0 -749 -60 -41 -60 -41 0 623 0 622 36 83 c19 46 45 122 56 168 12 47
23 85 25 85 1 0 3 -337 3 -750z m-1960 695 c0 -35 48 -181 81 -247 l29 -57 0
-622 c0 -341 -3 -619 -8 -617 -4 2 -33 19 -65 38 l-57 35 0 753 c0 500 3 751
10 747 6 -3 10 -17 10 -30z m2620 -545 l0 -455 -52 -41 c-29 -22 -59 -44 -65
-48 -10 -6 -13 106 -13 544 l0 550 65 -47 64 -48 1 -455z m-3162 -298 l-3
-280 -62 46 -63 46 0 461 1 460 62 46 62 46 3 -273 c1 -150 1 -399 0 -552z
m2292 -156 l0 -583 -62 -41 -63 -42 -3 559 -2 558 62 66 c35 36 64 66 66 67 1
0 2 -263 2 -584z m-1432 -126 l-3 -558 -57 35 -58 36 0 585 0 584 60 -62 60
-62 -2 -558z m1212 -45 l0 -554 -59 -41 c-33 -22 -62 -40 -65 -40 -4 0 -6 252
-6 559 l0 559 63 36 c34 19 63 35 65 36 1 0 2 -250 2 -555z m-992 -95 c1 -308
0 -560 -3 -560 -4 0 -33 18 -66 40 l-59 41 0 554 0 555 63 -35 62 -34 3 -561z
m1452 -1840 l0 -70 -115 0 -115 0 0 -320 0 -320 -95 0 -95 0 0 320 0 320 -120
0 -120 0 0 70 0 70 330 0 330 0 0 -70z m330 -182 c0 -139 5 -269 10 -289 5
-19 23 -48 40 -64 40 -39 128 -47 177 -16 64 40 68 57 71 354 l3 267 90 0 90
0 -3 -284 -3 -283 -35 -69 c-56 -110 -141 -154 -297 -154 -163 0 -272 71 -312
204 -19 62 -21 93 -21 327 l0 259 95 0 95 0 0 -252z m-1162 200 c55 -33 84
-88 89 -166 4 -65 -13 -147 -32 -147 -7 0 -23 40 -101 253 -33 91 -33 93 -11
86 12 -3 37 -15 55 -26z m181 -1120 c-1 -62 -5 -124 -9 -138 -5 -15 -8 28 -9
113 -1 85 3 137 9 137 6 0 10 -44 9 -112z m311 97 c35 -18 37 -26 10 -50 -16
-14 -23 -16 -32 -7 -13 13 -66 16 -93 6 -25 -10 -45 -58 -45 -109 0 -38 5 -52
29 -76 33 -32 62 -36 104 -14 27 14 30 13 47 -8 18 -22 18 -22 -11 -41 -105
-66 -249 17 -249 144 0 49 38 120 79 147 41 27 117 31 161 8z m340 -15 c0 -29
-1 -30 -50 -30 l-50 0 0 -135 0 -135 -40 0 -40 0 0 135 0 135 -50 0 c-49 0
-50 1 -50 30 l0 30 140 0 140 0 0 -30z m130 -135 l0 -165 -35 0 -35 0 0 165 0
165 35 0 35 0 0 -165z m327 145 c47 -28 67 -73 68 -152 0 -72 -14 -102 -69
-142 -39 -30 -143 -30 -183 0 -42 31 -63 80 -63 149 0 70 20 116 65 145 41 27
138 27 182 0z m290 -100 l63 -115 -6 118 -7 117 41 0 42 0 0 -165 0 -165 -44
0 -43 0 -59 110 c-32 60 -61 110 -64 110 -3 0 -4 -49 -2 -110 l3 -110 -35 0
-36 0 0 166 0 165 42 -3 42 -3 63 -115z"/>
<path d="M6341 2384 c-29 -37 -31 -110 -5 -152 54 -84 155 -18 141 91 -11 81
-92 117 -136 61z"/>
</g>
</svg>
